<svg width="175" height="131" viewBox="0 0 175 131" fill="none" xmlns="http://www.w3.org/2000/svg">
<g clip-path="url(#clip0_39_102)">
<path d="M87.2713 119.791C59.9171 119.791 32.5596 119.791 5.20542 119.791C4.63419 119.791 4.06638 119.808 3.49515 119.785C1.50438 119.698 0.314033 118.699 0.303771 117.118C0.293509 115.608 1.60016 114.506 3.52935 114.483C6.20764 114.451 8.88593 114.477 11.5642 114.474C14.1844 114.474 16.8113 114.399 19.4281 114.506C20.7826 114.561 21.1076 114.179 21.1041 112.915C21.0563 98.4296 21.0734 83.9405 21.0734 69.4546C21.0734 66.5451 21.176 63.6324 21.0392 60.7327C20.9434 58.7672 21.8225 57.7068 23.6217 56.8534C32.4638 52.667 41.2375 48.3578 50.0796 44.1746C51.3008 43.596 51.6531 42.9494 51.6394 41.7145C51.571 35.4139 51.6531 29.1133 51.5813 22.8127C51.5607 20.9895 52.2825 19.8321 53.9243 18.8817C64.251 12.9012 74.5537 6.87535 84.8153 0.791343C86.5906 -0.259295 88.0306 -0.262528 89.8093 0.791343C100.071 6.87535 110.374 12.8947 120.7 18.8752C122.342 19.8257 123.04 20.9765 123.03 22.8095C122.975 35.8439 123.026 48.875 122.961 61.9094C122.954 63.3286 123.358 64.0688 124.743 64.7186C133.442 68.8113 142.062 73.0558 150.767 77.1323C152.836 78.1021 153.657 79.3532 153.637 81.5321C153.548 91.8703 153.63 102.212 153.558 112.553C153.548 114.04 153.818 114.567 155.549 114.522C160.56 114.393 165.578 114.477 170.592 114.477C173.062 114.477 174.259 115.327 174.29 117.089C174.324 118.932 173.134 119.791 170.521 119.791C142.78 119.791 115.026 119.791 87.2713 119.791ZM51.6155 49.4472C43.389 53.3847 35.4499 57.2025 27.4869 60.9784C26.6181 61.3889 26.642 61.9967 26.642 62.7079C26.6489 79.5051 26.6591 96.3024 26.6215 113.103C26.6181 114.27 27.0046 114.512 28.1607 114.506C35.3405 114.457 42.5168 114.438 49.6965 114.516C51.2221 114.532 51.6599 114.199 51.6531 112.699C51.5949 92.2389 51.6155 71.7822 51.6155 51.3222C51.6155 50.7823 51.6155 50.2489 51.6155 49.4472ZM123.009 69.8005C123.009 84.5191 123.019 98.9824 122.989 113.449C122.985 114.348 123.331 114.493 124.172 114.49C131.687 114.464 139.202 114.461 146.714 114.493C147.63 114.496 147.989 114.325 147.986 113.362C147.948 103.14 147.955 92.921 147.979 82.6991C147.979 82.0137 147.747 81.6323 147.104 81.3252C139.151 77.5364 131.215 73.7283 123.009 69.8005ZM90.1685 7.35056C90.1685 10.4281 90.2301 13.218 90.1377 16.0013C90.1001 17.0682 90.5037 17.6209 91.4273 18.1576C99.5305 22.8321 107.6 27.5551 115.689 32.2491C116.151 32.5174 116.555 32.9506 117.307 32.9053C117.307 29.8924 117.297 26.8892 117.314 23.8827C117.317 23.3267 117.064 23.0067 116.582 22.7287C107.877 17.6694 99.1748 12.5973 90.1685 7.35056ZM90.1685 39.9074C90.1685 43.0625 90.2232 45.8621 90.1377 48.6584C90.1069 49.6703 90.5208 50.1778 91.3828 50.6756C99.6195 55.4568 107.832 60.2801 116.055 65.0839C116.404 65.2876 116.705 65.7014 117.314 65.4622C117.314 62.682 117.263 59.8825 117.341 57.0894C117.369 56.0775 116.951 55.5603 116.086 55.0625C110.456 51.8136 104.856 48.5194 99.2501 45.2382C96.3152 43.5216 93.3872 41.7986 90.1685 39.9074ZM90.1685 23.5821C90.1685 26.7114 90.213 29.5562 90.1445 32.3945C90.1206 33.3256 90.4661 33.8234 91.2904 34.3018C99.4279 39.0249 107.535 43.7932 115.662 48.5356C116.117 48.8007 116.51 49.2662 117.314 49.1466C117.314 46.153 117.304 43.1531 117.324 40.1531C117.328 39.5777 117.006 39.2997 116.538 39.0281C107.839 33.943 99.1543 28.8482 90.1685 23.5821ZM90.1685 56.2327C90.1685 59.4331 90.2061 62.3393 90.1445 65.2423C90.1274 66.0796 90.5003 66.4708 91.1912 66.8716C99.4655 71.6916 107.723 76.5407 115.994 81.3704C116.349 81.5773 116.667 82.0008 117.314 81.7293C117.314 79.0332 117.263 76.2918 117.341 73.5537C117.369 72.516 117.054 71.8985 116.076 71.3651C113.568 69.9944 111.136 68.4977 108.674 67.0527C102.592 63.4967 96.5102 59.9406 90.1685 56.2327ZM117.314 98.4716C117.314 95.4166 117.249 92.727 117.345 90.0406C117.386 88.8768 117.003 88.2141 115.939 87.5967C107.743 82.8575 99.5887 78.0504 91.4101 73.2821C91.0681 73.0817 90.7602 72.6227 90.1719 72.9395C90.1719 75.6647 90.2232 78.4092 90.1445 81.1538C90.1138 82.1915 90.4319 82.7864 91.3965 83.3359C96.6504 86.3391 101.857 89.4135 107.08 92.4684C110.398 94.4113 113.716 96.3606 117.314 98.4716ZM90.1685 88.8768C90.1685 92.1193 90.1822 95.019 90.1582 97.922C90.1514 98.5621 90.2882 98.9888 90.9313 99.3638C99.3492 104.248 107.754 109.156 116.141 114.086C117.235 114.729 117.335 114.276 117.321 113.368C117.29 111.002 117.252 108.635 117.338 106.272C117.379 105.176 117.01 104.543 115.997 103.964C110.562 100.848 105.174 97.6537 99.77 94.4889C96.6538 92.6591 93.5275 90.8391 90.1685 88.8768ZM90.3806 105.309C90.2574 105.597 90.1856 105.69 90.1856 105.781C90.1753 107.552 90.1719 109.324 90.1685 111.095C90.1651 114.477 90.1685 114.477 93.7772 114.477C97.7108 114.477 101.648 114.477 105.581 114.477C105.599 114.383 105.616 114.293 105.633 114.199C100.591 111.257 95.549 108.318 90.3806 105.309ZM69.522 42.0475C70.945 42.0475 72.3714 42.0927 73.7943 42.0345C75.2378 41.9764 76.1613 41.2522 76.2229 39.8395C76.2845 38.443 75.4977 37.5055 74.0269 37.457C71.0716 37.3632 68.1094 37.3665 65.154 37.4505C63.7037 37.4926 62.8759 38.3783 62.8588 39.7716C62.8417 41.0583 63.9089 41.9893 65.4242 42.0378C66.7856 42.0798 68.1538 42.0475 69.522 42.0475ZM69.6691 59.0258C69.6691 59.0226 69.6691 59.0193 69.6691 59.0129C68.9884 59.0129 68.3077 59.0096 67.6271 59.0129C66.9464 59.0161 66.2657 58.9935 65.585 59.0355C64.1005 59.1325 63.0982 59.8049 62.9819 61.279C62.8828 62.5462 64.0389 63.6357 65.6226 63.6745C68.3419 63.7423 71.0681 63.7456 73.7875 63.668C75.248 63.626 76.2674 62.8533 76.4042 61.4051C76.5239 60.1605 75.3575 59.126 73.7464 59.0387C72.3953 58.9676 71.0305 59.0258 69.6691 59.0258ZM69.7957 107C71.1571 107 72.5219 107.054 73.8764 106.987C75.508 106.906 76.5786 105.913 76.5171 104.607C76.4452 103.091 75.4293 102.39 73.9585 102.354C71.2392 102.289 68.513 102.277 65.7936 102.354C64.0492 102.403 63.1153 103.327 63.153 104.688C63.1872 106.007 64.2236 106.922 65.8826 106.99C67.1858 107.048 68.4925 107.003 69.7957 107ZM69.9872 80.6689C68.6259 80.6689 67.2645 80.6689 65.9031 80.6689C65.7902 80.6689 65.6773 80.6786 65.5645 80.6916C63.9363 80.8823 63.0572 81.7034 63.0811 83.0159C63.1051 84.296 64.0628 85.2788 65.6124 85.3241C68.3317 85.4016 71.0579 85.3952 73.7772 85.3305C75.3746 85.2917 76.5034 84.2185 76.4829 82.9739C76.4623 81.7002 75.3951 80.7659 73.7293 80.6819C72.4842 80.6204 71.2323 80.6722 69.9872 80.6689ZM69.8299 96.1085C71.1365 96.1085 72.4432 96.1085 73.7533 96.1085C73.8114 96.1085 73.8661 96.1085 73.9243 96.1085C75.5422 96.0503 76.4726 95.255 76.5 93.9102C76.5273 92.5977 75.5525 91.5826 74.0474 91.5535C71.205 91.5018 68.3625 91.4953 65.52 91.5568C63.991 91.5891 63.0572 92.5945 63.1496 93.949C63.2453 95.3488 64.0526 96.0988 65.5645 96.1052C66.9874 96.1117 68.4104 96.1085 69.8299 96.1085ZM69.3373 31.1499C70.815 31.1499 72.2927 31.1661 73.7704 31.1467C75.2686 31.1241 76.1237 30.3676 76.1648 28.9678C76.2024 27.581 75.3849 26.6629 73.9311 26.6176C70.9792 26.5271 68.0204 26.5401 65.0651 26.6176C63.6695 26.6532 62.7391 27.72 62.8349 28.9775C62.9409 30.3611 63.7311 31.137 65.2464 31.1499C66.6077 31.1596 67.9725 31.1499 69.3373 31.1499ZM69.7239 48.2252C68.4138 48.2252 67.1071 48.2252 65.7971 48.2252C65.6842 48.2252 65.5679 48.222 65.455 48.2317C63.9431 48.3287 62.8075 49.2953 62.9204 50.5302C63.0401 51.8782 63.8576 52.7478 65.3353 52.7737C68.1812 52.8254 71.0271 52.8286 73.873 52.7769C75.3301 52.751 76.2092 51.9493 76.3118 50.569C76.4076 49.2726 75.3575 48.3028 73.8251 48.2414C72.4603 48.1864 71.0921 48.2317 69.7239 48.2252ZM69.7102 69.8781C68.4001 69.8781 67.0935 69.8781 65.7834 69.8781C65.7252 69.8781 65.6705 69.8748 65.6124 69.8781C64.0252 69.9654 63.023 70.8156 62.9922 72.099C62.9614 73.3953 63.9431 74.3974 65.4858 74.4298C68.2735 74.4879 71.0647 74.4847 73.8525 74.433C75.3609 74.4039 76.4521 73.35 76.4213 72.1442C76.3905 70.8802 75.3404 69.9395 73.8114 69.891C72.4432 69.8457 71.075 69.8813 69.7102 69.8781Z" fill="#132541"/>
<path d="M87.2529 125.728C102.916 125.728 118.578 125.728 134.241 125.728C136.988 125.728 138.342 126.581 138.376 128.327C138.411 130.072 137.015 130.994 134.306 130.994C103.039 130.994 71.7715 130.994 40.5043 130.994C40.0493 130.994 39.591 131.016 39.1395 130.978C37.501 130.835 36.4441 129.814 36.427 128.388C36.4099 126.943 37.4258 125.915 39.0779 125.757C39.6423 125.702 40.2169 125.728 40.7848 125.728C56.2696 125.728 71.7613 125.728 87.2529 125.728Z" fill="#C68303"/>
<path d="M41.8795 84.2386C41.8795 76.4929 41.876 68.7473 41.8863 60.9984C41.8863 60.4101 41.8726 59.7991 42.03 59.2398C42.2728 58.3605 43.0014 57.9273 43.942 57.9112C44.8006 57.895 45.4539 58.2506 45.8302 59.0362C46.0799 59.5534 46.0731 60.0803 46.0731 60.6137C46.0731 76.4283 46.0731 92.2428 46.0731 108.061C46.0731 108.539 46.0799 109.011 45.8644 109.483C45.4676 110.346 44.763 110.679 43.8292 110.656C42.8509 110.631 42.2181 110.107 41.9992 109.244C41.8555 108.678 41.8863 108.07 41.8863 107.479C41.876 99.7331 41.8795 91.9842 41.8795 84.2386Z" fill="#C68303"/>
<path d="M36.5264 88.4411C36.5264 94.787 36.5264 101.136 36.5264 107.482C36.5264 107.967 36.5708 108.458 36.4853 108.93C36.2903 110.026 35.5994 110.666 34.3885 110.65C33.2563 110.634 32.6064 110.007 32.4046 108.992C32.3122 108.523 32.3499 108.028 32.3499 107.543C32.3464 94.8484 32.3464 82.1567 32.3464 69.4617C32.3464 69.1934 32.3533 68.9251 32.3464 68.6535C32.3191 67.3152 32.9964 66.3971 34.4056 66.3745C35.8183 66.3518 36.5264 67.2408 36.5229 68.5889C36.5229 69.2872 36.5229 69.9887 36.5229 70.6869C36.5264 76.6093 36.5264 82.5252 36.5264 88.4411Z" fill="#C68303"/>
<path d="M128.584 94.108C128.584 89.6436 128.577 85.176 128.594 80.7116C128.597 80.1265 128.652 79.5252 128.806 78.9627C129.052 78.0672 129.808 77.6599 130.725 77.6373C131.577 77.6179 132.244 78.009 132.627 78.772C132.904 79.3248 132.931 79.9066 132.931 80.5047C132.921 89.5984 132.914 98.6888 132.921 107.782C132.921 108.72 132.897 109.648 132.049 110.278C131.371 110.779 130.561 110.844 129.791 110.472C128.802 109.994 128.577 109.111 128.577 108.151C128.573 103.47 128.577 98.789 128.577 94.108C128.577 94.108 128.58 94.108 128.584 94.108Z" fill="#C68303"/>
<path d="M142.434 98.3171C142.434 101.547 142.43 104.779 142.437 108.009C142.437 109.024 142.273 109.971 141.202 110.482C139.595 111.245 138.107 110.107 138.1 108.07C138.079 102.901 138.096 97.732 138.093 92.5628C138.093 91.2697 138.062 89.9766 138.083 88.6868C138.11 87.0769 138.945 86.078 140.231 86.0521C141.524 86.0262 142.399 86.9961 142.42 88.6286C142.461 91.8549 142.434 95.0876 142.434 98.3171Z" fill="#C68303"/>
</g>
<defs>
<clipPath id="clip0_39_102">
<rect width="174" height="131" fill="white" transform="translate(0.306152)"/>
</clipPath>
</defs>
</svg>
